<?xml version="1.0" standalone="no"?><!DOCTYPE svg PUBLIC "-//W3C//DTD SVG 1.1//EN" "http://www.w3.org/Graphics/SVG/1.1/DTD/svg11.dtd"><svg t="1496825536701" class="icon" style="" viewBox="0 0 1024 1024" version="1.1" xmlns="http://www.w3.org/2000/svg" p-id="1882" xmlns:xlink="http://www.w3.org/1999/xlink" width="200" height="200"><defs><style type="text/css"></style></defs><path d="M535.808 171.4432m-100.5312 0a3.927 3.927 0 1 0 201.0624 0 3.927 3.927 0 1 0-201.0624 0Z" p-id="1883" fill="#707070"></path><path d="M535.8336 291.1744c-66.0224 0-119.7568-53.7088-119.7568-119.7312s53.7344-119.7312 119.7568-119.7312 119.7312 53.7088 119.7312 119.7312S601.856 291.1744 535.8336 291.1744zM535.8336 90.1376c-44.8512 0-81.3568 36.48-81.3568 81.3312s36.5056 81.3312 81.3568 81.3312 81.3312-36.48 81.3312-81.3312S580.6848 90.1376 535.8336 90.1376z" p-id="1884" fill="#707070"></path><path d="M280.96 276.8384m-90.1888 0a3.523 3.523 0 1 0 180.3776 0 3.523 3.523 0 1 0-180.3776 0Z" p-id="1885" fill="#707070"></path><path d="M280.96 386.2272c-60.288 0-109.3632-49.0752-109.3632-109.3888 0-60.288 49.0752-109.3632 109.3632-109.3632 60.3136 0 109.3888 49.0752 109.3888 109.3632C390.3488 337.152 341.2736 386.2272 280.96 386.2272zM280.96 205.8496c-39.1168 0-70.9632 31.8464-70.9632 70.9632 0 39.1424 31.8464 70.9888 70.9632 70.9888 39.1424 0 70.9888-31.8464 70.9888-70.9888C351.9488 237.696 320.1024 205.8496 280.96 205.8496z" p-id="1886" fill="#707070"></path><path d="M172.6464 537.1136m-77.2608 0a3.018 3.018 0 1 0 154.5216 0 3.018 3.018 0 1 0-154.5216 0Z" p-id="1887" fill="#707070"></path><path d="M172.6464 633.5744c-53.1712 0-96.4608-43.264-96.4608-96.4864 0-53.1712 43.264-96.4608 96.4608-96.4608s96.4608 43.264 96.4608 96.4608C269.1072 590.3104 225.8176 633.5744 172.6464 633.5744zM172.6464 479.0528c-32 0-58.0608 26.0608-58.0608 58.0608 0 32.0256 26.0608 58.0864 58.0608 58.0864s58.0608-26.0608 58.0608-58.0864C230.7072 505.088 204.6464 479.0528 172.6464 479.0528z" p-id="1888" fill="#707070"></path><path d="M280.96 796.8m-62.592 0a2.445 2.445 0 1 0 125.184 0 2.445 2.445 0 1 0-125.184 0Z" p-id="1889" fill="#707070"></path><path d="M280.96 878.592c-45.1072 0-81.792-36.7104-81.792-81.792s36.7104-81.792 81.792-81.792 81.792 36.7104 81.792 81.792S326.0416 878.592 280.96 878.592zM280.96 753.408c-23.936 0-43.392 19.4816-43.392 43.392s19.4816 43.392 43.392 43.392 43.392-19.4816 43.392-43.392S304.8704 753.408 280.96 753.408z" p-id="1890" fill="#707070"></path><path d="M535.808 900.8128m-52.2496 0a2.041 2.041 0 1 0 104.4992 0 2.041 2.041 0 1 0-104.4992 0Z" p-id="1891" fill="#707070"></path><path d="M535.8336 972.2624c-39.3984 0-71.4752-32.0512-71.4752-71.4496s32.0768-71.4496 71.4752-71.4496 71.4496 32.0512 71.4496 71.4496S575.232 972.2624 535.8336 972.2624zM535.8336 867.7632c-18.2528 0-33.0752 14.8224-33.0752 33.0496s14.8224 33.0496 33.0752 33.0496c18.2272 0 33.0496-14.8224 33.0496-33.0496S554.0608 867.7632 535.8336 867.7632z" p-id="1892" fill="#707070"></path><path d="M794.5216 793.8816m-38.4768 0a1.503 1.503 0 1 0 76.9536 0 1.503 1.503 0 1 0-76.9536 0Z" p-id="1893" fill="#707070"></path><path d="M794.5216 851.584c-31.8208 0-57.7024-25.8816-57.7024-57.6768 0-31.8208 25.8816-57.7024 57.7024-57.7024s57.7024 25.8816 57.7024 57.7024C852.224 825.7024 826.3424 851.584 794.5216 851.584zM794.5216 774.6048c-10.6496 0-19.3024 8.6528-19.3024 19.3024 0 10.624 8.6528 19.2768 19.3024 19.2768s19.3024-8.6528 19.3024-19.2768C813.824 783.2576 805.1712 774.6048 794.5216 774.6048z" p-id="1894" fill="#707070"></path><path d="M900.48 537.5232m-28.1344 0a1.099 1.099 0 1 0 56.2688 0 1.099 1.099 0 1 0-56.2688 0Z" p-id="1895" fill="#707070"></path><path d="M900.48 584.8832c-26.112 0-47.36-21.248-47.36-47.36s21.248-47.36 47.36-47.36 47.3344 21.248 47.3344 47.36S926.5664 584.8832 900.48 584.8832zM900.48 528.5632c-4.9152 0-8.96 4.0192-8.96 8.96s4.0192 8.96 8.96 8.96 8.9344-4.0192 8.9344-8.96S905.3952 528.5632 900.48 528.5632z" p-id="1896" fill="#707070"></path><path d="M794.5216 280.3968m-17.536 0a0.685 0.685 0 1 0 35.072 0 0.685 0.685 0 1 0-35.072 0Z" p-id="1897" fill="#707070"></path><path d="M794.5216 280.3968m-36.736 0a1.435 1.435 0 1 0 73.472 0 1.435 1.435 0 1 0-73.472 0Z" p-id="1898" fill="#707070"></path></svg>